<?xml version="1.0" encoding="UTF-8" standalone="no"?>
<svg
   xmlns:dc="http://purl.org/dc/elements/1.1/"
   xmlns:cc="http://creativecommons.org/ns#"
   xmlns:rdf="http://www.w3.org/1999/02/22-rdf-syntax-ns#"
   xmlns:svg="http://www.w3.org/2000/svg"
   xmlns="http://www.w3.org/2000/svg"
   xmlns:sodipodi="http://sodipodi.sourceforge.net/DTD/sodipodi-0.dtd"
   xmlns:inkscape="http://www.inkscape.org/namespaces/inkscape"
   width="100mm"
   height="100mm"
   viewBox="0 0 100 100"
   version="1.1"
   id="svg8"
   inkscape:version="1.0.2 (1.0.2+r75+1)"
   sodipodi:docname="align.svg">
  <defs
     id="defs2" />
  <sodipodi:namedview
     id="base"
     pagecolor="#ffffff"
     bordercolor="#666666"
     borderopacity="1.0"
     inkscape:pageopacity="0.0"
     inkscape:pageshadow="2"
     inkscape:zoom="0.7"
     inkscape:cx="209.19444"
     inkscape:cy="327.52324"
     inkscape:document-units="mm"
     inkscape:current-layer="layer1"
     inkscape:document-rotation="0"
     showgrid="false"
     inkscape:window-width="1280"
     inkscape:window-height="671"
     inkscape:window-x="0"
     inkscape:window-y="25"
     inkscape:window-maximized="1" />
  <metadata
     id="metadata5">
    <rdf:RDF>
      <cc:Work
         rdf:about="">
        <dc:format>image/svg+xml</dc:format>
        <dc:type
           rdf:resource="http://purl.org/dc/dcmitype/StillImage" />
        <dc:title></dc:title>
      </cc:Work>
    </rdf:RDF>
  </metadata>
  <g
     inkscape:label="Calque 1"
     inkscape:groupmode="layer"
     id="layer1">
    <rect
       style="fill:#000000;stroke:#000000;stroke-width:5.64934;stroke-linecap:round;stroke-linejoin:round;paint-order:markers stroke fill"
       id="rect835"
       width="95.165894"
       height="4.3394265"
       x="2.4170532"
       y="47.830288"
       ry="1.1535673" />
    <rect
       style="fill:#000000;stroke:#000000;stroke-width:5.651;stroke-linecap:round;stroke-linejoin:round;paint-order:markers stroke fill"
       id="rect837"
       width="95.37606"
       height="3.9272583"
       x="2.3119698"
       y="-51.963631"
       ry="1.1539061"
       transform="rotate(90)" />
    <path
       sodipodi:type="star"
       style="fill:#000000;stroke:#000000;stroke-width:5.651;stroke-linecap:round;stroke-linejoin:round;paint-order:markers stroke fill"
       id="path857"
       sodipodi:sides="37"
       sodipodi:cx="50.005692"
       sodipodi:cy="49.967769"
       sodipodi:r1="21.051039"
       sodipodi:r2="20.975201"
       sodipodi:arg1="-0.80025467"
       sodipodi:arg2="-0.71534676"
       inkscape:flatsided="true"
       inkscape:rounded="0"
       inkscape:randomized="0"
       d="m 64.668245,34.862944 2.341821,2.695253 1.852635,3.052253 1.310154,3.321447 0.729981,3.495088 0.128808,3.568181 -0.47607,3.538625 -1.067253,3.407269 -1.627732,3.177892 -2.141386,2.857093 -2.593434,2.4541 -2.970875,1.980508 -3.26285,1.449939 -3.460957,0.877659 -3.5595,0.28013 -3.555641,-0.325457 -3.449495,-0.921683 -3.244111,-1.491392 -2.945401,-2.018198 -2.561958,-2.486943 -2.10481,-2.884143 -1.587113,-3.198372 -1.023755,-3.42059 -0.430947,-3.544403 0.174258,-3.566251 0.774452,-3.485504 1.352364,-3.304485 1.891373,-3.028402 2.375969,-2.665198 2.792214,-2.22532 3.128132,-1.721425 3.374058,-1.168007 3.52292,-0.580988 3.570433,0.02275 3.515232,0.625825 3.358903,1.210899 3.105946,1.76114 z"
       inkscape:transform-center-x="0.0056918963"
       inkscape:transform-center-y="0.032230333" />
  </g>
</svg>
