<?xml version="1.0" encoding="UTF-8" standalone="no"?>
<svg
   width="100mm"
   height="100mm"
   viewBox="0 0 100 100"
   version="1.1"
   id="svg8"
   inkscape:version="1.2 (dc2aedaf03, 2022-05-15)"
   sodipodi:docname="generator_2.svg"
   xmlns:inkscape="http://www.inkscape.org/namespaces/inkscape"
   xmlns:sodipodi="http://sodipodi.sourceforge.net/DTD/sodipodi-0.dtd"
   xmlns="http://www.w3.org/2000/svg"
   xmlns:svg="http://www.w3.org/2000/svg"
   xmlns:rdf="http://www.w3.org/1999/02/22-rdf-syntax-ns#"
   xmlns:cc="http://creativecommons.org/ns#"
   xmlns:dc="http://purl.org/dc/elements/1.1/">
  <defs
     id="defs2">
    <inkscape:path-effect
       effect="bspline"
       id="path-effect873"
       is_visible="true"
       lpeversion="1"
       weight="33.333333"
       steps="2"
       helper_size="0"
       apply_no_weight="true"
       apply_with_weight="true"
       only_selected="false" />
    <inkscape:path-effect
       effect="bspline"
       id="path-effect869"
       is_visible="true"
       lpeversion="1"
       weight="33.333333"
       steps="2"
       helper_size="0"
       apply_no_weight="true"
       apply_with_weight="true"
       only_selected="false" />
    <inkscape:path-effect
       effect="bspline"
       id="path-effect865"
       is_visible="true"
       lpeversion="1"
       weight="33.333333"
       steps="2"
       helper_size="0"
       apply_no_weight="true"
       apply_with_weight="true"
       only_selected="false" />
    <inkscape:path-effect
       effect="bspline"
       id="path-effect861"
       is_visible="true"
       lpeversion="1"
       weight="33.333333"
       steps="2"
       helper_size="0"
       apply_no_weight="true"
       apply_with_weight="true"
       only_selected="false" />
    <inkscape:path-effect
       effect="bspline"
       id="path-effect857"
       is_visible="true"
       lpeversion="1"
       weight="33.333333"
       steps="2"
       helper_size="0"
       apply_no_weight="true"
       apply_with_weight="true"
       only_selected="false" />
    <inkscape:path-effect
       effect="bspline"
       id="path-effect853"
       is_visible="true"
       lpeversion="1"
       weight="33.333333"
       steps="2"
       helper_size="0"
       apply_no_weight="true"
       apply_with_weight="true"
       only_selected="false" />
  </defs>
  <sodipodi:namedview
     id="base"
     pagecolor="#ffffff"
     bordercolor="#666666"
     borderopacity="1.0"
     inkscape:pageopacity="0.0"
     inkscape:pageshadow="2"
     inkscape:zoom="0.98994949"
     inkscape:cx="196.97975"
     inkscape:cy="77.27667"
     inkscape:document-units="mm"
     inkscape:current-layer="layer1"
     inkscape:document-rotation="0"
     showgrid="false"
     inkscape:window-width="1920"
     inkscape:window-height="991"
     inkscape:window-x="-9"
     inkscape:window-y="-9"
     inkscape:window-maximized="1"
     inkscape:snap-object-midpoints="true"
     inkscape:showpageshadow="2"
     inkscape:pagecheckerboard="0"
     inkscape:deskcolor="#d1d1d1" />
  <metadata
     id="metadata5">
    <rdf:RDF>
      <cc:Work
         rdf:about="">
        <dc:format>image/svg+xml</dc:format>
        <dc:type
           rdf:resource="http://purl.org/dc/dcmitype/StillImage" />
      </cc:Work>
    </rdf:RDF>
  </metadata>
  <g
     inkscape:label="Calque 1"
     inkscape:groupmode="layer"
     id="layer1">
    <path
       id="path906-8"
       style="fill:#000000;fill-opacity:1;stroke:none;stroke-width:8.21072;stroke-linecap:round;stroke-linejoin:round;stroke-miterlimit:4;stroke-dasharray:none;paint-order:markers stroke fill"
       inkscape:transform-center-x="8.8294558e-06"
       inkscape:transform-center-y="-4.5909531e-05"
       d="M 35.490857 0 L 35.490857 0.0010335286 C 35.490857 0.0010335286 28.496501 4.0917731 24.999508 6.1370931 C 21.502517 8.1824353 14.508675 12.273153 14.508675 12.273153 C 16.190372 14.936196 17.084411 18.031212 17.084745 21.192505 C 17.084745 30.335771 9.7674586 37.747567 0.7415568 37.747567 C 0.49420576 37.747207 0.24708167 37.741302 0 37.72948 L 0 62.271134 C 0.24708167 62.259804 0.49420576 62.253048 0.7415568 62.253048 C 9.7674597 62.253048 17.084724 69.665383 17.084745 78.808626 C 17.084612 81.970333 16.190572 85.065652 14.508675 87.729012 L 35.489307 100.0001 C 38.298549 94.509635 43.894769 91.063101 49.999532 91.063175 C 56.104295 91.063101 61.699999 94.509635 64.509241 100.0001 L 85.491423 87.729012 C 83.809544 85.065631 82.915465 81.970332 82.915352 78.808626 C 82.915375 69.665383 90.232636 62.253048 99.258541 62.253048 C 99.505897 62.253418 99.75302 62.259344 100.0001 62.271134 L 100.0001 37.728446 C 99.75302 37.739776 99.505897 37.746533 99.258541 37.746533 C 90.232636 37.746533 82.915352 30.334746 82.915352 21.191471 C 82.915352 18.030295 83.809116 14.935279 85.490389 12.272119 L 64.509241 0 C 61.700312 5.4909041 56.104543 8.9378176 49.999532 8.9379557 C 43.894926 8.9373625 38.299606 5.4905439 35.490857 0 z M 50.000049 25.20828 A 24.791967 24.791967 0 0 1 74.791817 50.000049 A 24.791967 24.791967 0 0 1 50.000049 74.791817 A 24.791967 24.791967 0 0 1 25.20828 50.000049 A 24.791967 24.791967 0 0 1 50.000049 25.20828 z " />
  </g>
</svg>
