<?xml version="1.0" encoding="UTF-8" standalone="no"?>
<svg
   xmlns:dc="http://purl.org/dc/elements/1.1/"
   xmlns:cc="http://creativecommons.org/ns#"
   xmlns:rdf="http://www.w3.org/1999/02/22-rdf-syntax-ns#"
   xmlns:svg="http://www.w3.org/2000/svg"
   xmlns="http://www.w3.org/2000/svg"
   xmlns:sodipodi="http://sodipodi.sourceforge.net/DTD/sodipodi-0.dtd"
   xmlns:inkscape="http://www.inkscape.org/namespaces/inkscape"
   version="1.1"
   id="Capa_1"
   x="0px"
   y="0px"
   viewBox="0 0 288.824 288.824"
   style="enable-background:new 0 0 288.824 288.824;"
   xml:space="preserve"
   sodipodi:docname="arc (copie 1).svg"
   inkscape:version="1.0.2 (1.0.2+r75+1)"><metadata
   id="metadata52"><rdf:RDF><cc:Work
       rdf:about=""><dc:format>image/svg+xml</dc:format><dc:type
         rdf:resource="http://purl.org/dc/dcmitype/StillImage" /></cc:Work></rdf:RDF></metadata><defs
   id="defs50" /><sodipodi:namedview
   pagecolor="#ffffff"
   bordercolor="#666666"
   borderopacity="1"
   objecttolerance="10"
   gridtolerance="10"
   guidetolerance="10"
   inkscape:pageopacity="0"
   inkscape:pageshadow="2"
   inkscape:window-width="1360"
   inkscape:window-height="719"
   id="namedview48"
   showgrid="false"
   inkscape:snap-object-midpoints="true"
   inkscape:zoom="0.97291082"
   inkscape:cx="99.321896"
   inkscape:cy="153.40248"
   inkscape:window-x="0"
   inkscape:window-y="25"
   inkscape:window-maximized="1"
   inkscape:current-layer="Capa_1" />

<g
   id="g17">
</g>
<g
   id="g19">
</g>
<g
   id="g21">
</g>
<g
   id="g23">
</g>
<g
   id="g25">
</g>
<g
   id="g27">
</g>
<g
   id="g29">
</g>
<g
   id="g31">
</g>
<g
   id="g33">
</g>
<g
   id="g35">
</g>
<g
   id="g37">
</g>
<g
   id="g39">
</g>
<g
   id="g41">
</g>
<g
   id="g43">
</g>
<g
   id="g45">
</g>
<g
   id="g888"
   transform="matrix(0.80517814,0,0,0.80517814,56.269034,0)"><g
     id="g15">
	<path
   id="Arrow_Up_Right"
   d="m 3.501,285.323 c 4.668,4.668 12.235,4.668 16.891,0 L 264.763,40.951 v 91.382 c 0,6.641 5.39,12.03 12.03,12.03 6.641,0 12.03,-5.39 12.03,-12.03 V 12.03 c 0,-3.188 -1.239,-6.268 -3.501,-8.529 C 283.06,1.24 279.981,0 276.793,0 H 156.49 c -6.641,0 -12.03,5.39 -12.03,12.03 0,6.64 5.39,12.03 12.03,12.03 h 91.382 L 3.501,268.432 c -4.668,4.668 -4.668,12.235 0,16.891 z" />
	<g
   id="g3">
	</g>
	<g
   id="g5">
	</g>
	<g
   id="g7">
	</g>
	<g
   id="g9">
	</g>
	<g
   id="g11">
	</g>
	<g
   id="g13">
	</g>
</g><circle
     style="fill:#000000;fill-opacity:1;stroke:#008000;stroke-width:0.875061;stroke-linecap:round;stroke-linejoin:round;paint-order:markers stroke fill"
     id="path877"
     cx="3.5009999"
     cy="285.323"
     r="71.639305" /></g></svg>
