<?xml version="1.0" encoding="iso-8859-1"?>
<!-- Generator: Adobe Illustrator 21.0.0, SVG Export Plug-In . SVG Version: 6.00 Build 0)  -->
<svg xmlns="http://www.w3.org/2000/svg" xmlns:xlink="http://www.w3.org/1999/xlink" version="1.1" id="Capa_1" x="0px" y="0px" viewBox="0 0 512 512" style="enable-background:new 0 0 512 512;" xml:space="preserve" width="512" height="512">
<g>
	<path d="M502.9,304.834L188.481,168.779c-5.64-2.388-12.173-1.143-16.509,3.193s-5.596,10.869-3.193,16.509l136.055,314.422   c2.388,5.552,7.837,9.097,13.799,9.097c0.439,0,0.894-0.015,1.362-0.059c6.475-0.586,11.836-5.288,13.271-11.631l31.553-135.491   l135.488-31.553c6.343-1.436,11.045-6.797,11.631-13.271S508.877,307.397,502.9,304.834z"/>
	<path d="M135,0h-30c-8.291,0-15,6.709-15,15s6.709,15,15,15h30c8.291,0,15-6.709,15-15S143.291,0,135,0z"/>
	<path d="M195,30h30c8.291,0,15-6.709,15-15s-6.709-15-15-15h-30c-8.291,0-15,6.709-15,15S186.709,30,195,30z"/>
	<path d="M285,30h30c8.291,0,15-6.709,15-15s-6.709-15-15-15h-30c-8.291,0-15,6.709-15,15S276.709,30,285,30z"/>
	<path d="M135,390h-30c-8.291,0-15,6.709-15,15s6.709,15,15,15h30c8.291,0,15-6.709,15-15S143.291,390,135,390z"/>
	<path d="M195,390c-8.291,0-15,6.709-15,15s6.709,15,15,15h40.151l-12.828-30H195z"/>
	<path d="M375,30h15v15c0,8.291,6.709,15,15,15s15-6.709,15-15V15c0-8.291-6.709-15-15-15h-30c-8.291,0-15,6.709-15,15   S366.709,30,375,30z"/>
	<path d="M45,0H15C6.709,0,0,6.709,0,15v30c0,8.291,6.709,15,15,15s15-6.709,15-15V30h15c8.291,0,15-6.709,15-15S53.291,0,45,0z"/>
	<path d="M15,150c8.291,0,15-6.709,15-15v-30c0-8.291-6.709-15-15-15S0,96.709,0,105v30C0,143.291,6.709,150,15,150z"/>
	<path d="M15,240c8.291,0,15-6.709,15-15v-30c0-8.291-6.709-15-15-15s-15,6.709-15,15v30C0,233.291,6.709,240,15,240z"/>
	<path d="M15,330c8.291,0,15-6.709,15-15v-30c0-8.291-6.709-15-15-15s-15,6.709-15,15v30C0,323.291,6.709,330,15,330z"/>
	<path d="M420,105c0-8.291-6.709-15-15-15s-15,6.709-15,15v30c0,8.291,6.709,15,15,15s15-6.709,15-15V105z"/>
	<path d="M45,390H30v-15c0-8.291-6.709-15-15-15s-15,6.709-15,15v30c0,8.291,6.709,15,15,15h30c8.291,0,15-6.709,15-15   S53.291,390,45,390z"/>
	<path d="M405,180c-8.291,0-15,6.709-15,15v27.321l30,12.827V195C420,186.709,413.291,180,405,180z"/>
</g>















</svg>
