<?xml version="1.0" encoding="UTF-8" standalone="no"?>
<svg
   xmlns:dc="http://purl.org/dc/elements/1.1/"
   xmlns:cc="http://creativecommons.org/ns#"
   xmlns:rdf="http://www.w3.org/1999/02/22-rdf-syntax-ns#"
   xmlns:svg="http://www.w3.org/2000/svg"
   xmlns="http://www.w3.org/2000/svg"
   xmlns:sodipodi="http://sodipodi.sourceforge.net/DTD/sodipodi-0.dtd"
   xmlns:inkscape="http://www.inkscape.org/namespaces/inkscape"
   width="100mm"
   height="100mm"
   viewBox="0 0 100 100"
   version="1.1"
   id="svg8"
   inkscape:version="1.0.2 (1.0.2+r75+1)"
   sodipodi:docname="stroke.svg">
  <defs
     id="defs2" />
  <sodipodi:namedview
     id="base"
     pagecolor="#ffffff"
     bordercolor="#666666"
     borderopacity="1.0"
     inkscape:pageopacity="0.0"
     inkscape:pageshadow="2"
     inkscape:zoom="1.4"
     inkscape:cx="320.22102"
     inkscape:cy="202.61037"
     inkscape:document-units="mm"
     inkscape:current-layer="layer1"
     inkscape:document-rotation="0"
     showgrid="false"
     inkscape:window-width="1920"
     inkscape:window-height="1050"
     inkscape:window-x="1080"
     inkscape:window-y="524"
     inkscape:window-maximized="1" />
  <metadata
     id="metadata5">
    <rdf:RDF>
      <cc:Work
         rdf:about="">
        <dc:format>image/svg+xml</dc:format>
        <dc:type
           rdf:resource="http://purl.org/dc/dcmitype/StillImage" />
        <dc:title />
      </cc:Work>
    </rdf:RDF>
  </metadata>
  <g
     inkscape:label="Calque 1"
     inkscape:groupmode="layer"
     id="layer1">
    <path
       style="fill:#000000;fill-opacity:1;stroke:#000000;stroke-width:0.374071px;stroke-linecap:butt;stroke-linejoin:miter;stroke-opacity:1"
       d="M 17.356434,6.9843721 87.848744,80.023248 92.033943,94.697275 78.386958,88.292004 8.1561228,15.242687 Z"
       id="path949"
       sodipodi:nodetypes="cccccc" />
    <path
       style="fill:#000000;fill-opacity:1;stroke:#000000;stroke-width:0.540411;stroke-opacity:0.997688"
       id="path977"
       d="m 85.316329,95.281545 c -1.874755,0.187286 -9.788203,0.20509 -1.376,0.164996 -2.322929,-0.149447 -4.671578,-0.503282 -6.9142,-1.376759 -0.454581,-0.177054 -0.897586,-0.40472 -1.346381,-0.607078 -2.693982,-1.588046 -4.57791,-4.609544 -6.435882,-7.569307 -1.12559,-1.945778 -2.271072,-3.837744 -3.757819,-5.301386 C 64.385285,79.508354 63.984816,79.288805 62.76848,78.3979 62.218849,78.060569 61.68424,77.674104 61.119589,77.385903 59.712042,76.667481 58.242588,76.192243 56.77145,75.792115 55.188101,75.361471 53.414329,75.006234 51.811032,74.780903 50.945498,74.659265 50.076252,74.592312 49.20886,74.498012 43.560232,74.13438 37.857589,73.976028 32.244491,75.064529 c -2.597908,0.503788 -3.50123,0.847596 -6.039566,1.61862 -4.596859,1.511604 -9.163679,3.388341 -13.496031,5.98925 -0.69164,0.415219 -1.364267,0.886314 -2.0464,1.32947 -1.603286,1.098038 -3.192547,2.242864 -4.6706294,3.632786 -0.9882766,0.92933 -1.9056837,1.973251 -2.8130964,3.039495 l 5.0262798,0.588901 v 0 c 0.905558,-1.037633 1.82043,-2.048763 2.806653,-2.946028 1.482427,-1.348718 3.067761,-2.467671 4.663717,-3.545111 0.681066,-0.430713 1.353523,-0.887358 2.0432,-1.292136 4.337532,-2.545752 8.891385,-4.403523 13.485155,-5.873766 0.982389,-0.287448 1.959643,-0.609251 2.947168,-0.862338 2.148638,-0.550667 4.008075,-0.895397 6.188211,-1.126652 1.048409,-0.111201 2.112113,0.0037 3.150655,-0.220302 0.663242,-0.143045 -2.681434,-0.133846 -2.014692,-0.02467 0.909076,0.148818 1.829996,0.09616 2.744996,0.144257 0.866231,0.08369 1.734145,0.139854 2.598687,0.251031 1.629992,0.209593 3.343159,0.53777 4.953775,0.947388 1.333445,0.339124 3.043588,0.841756 4.335508,1.458016 0.563758,0.26892 1.096733,0.644169 1.645096,0.966257 1.35086,0.93753 2.67403,1.880095 3.837788,3.22336 1.013719,1.170089 1.771867,2.636442 2.620288,4.010468 1.883742,3.036626 3.783399,6.139921 6.461947,7.932637 0.450623,0.221639 0.894314,0.471085 1.351868,0.664917 2.239018,0.94849 4.602348,1.311575 6.93165,1.539627 3.779636,0.0075 7.373298,-1.691772 13.077225,-1.812731 l -6.717614,0.584297 z"
       sodipodi:nodetypes="ccsccscssscscscsccsscscssscccsscsccscccc" />
  </g>
</svg>
